<svg xmlns="http://www.w3.org/2000/svg" viewBox="0 0 128 128">
  <defs>
    <linearGradient id="bg" x1="0" x2="1" y1="0" y2="1">
      <stop offset="0" stop-color="#dbeafe"/>
      <stop offset="1" stop-color="#bfdbfe"/>
    </linearGradient>
  </defs>
  <rect width="128" height="128" rx="32" fill="url(#bg)"/>
  <circle cx="64" cy="58" r="26" fill="#ffd8b5"/>
  <path d="M37 50c4-18 19-28 35-28 12 0 23 5 30 15-4 3-10 5-18 5-7 0-12-2-17-5-5 9-14 15-30 13z" fill="#5b7fb0"/>
  <path d="M31 51c2-16 14-31 30-34 20-4 38 6 45 23-5 1-8 1-12 0-5-8-16-13-27-11-12 2-19 10-22 22z" fill="#4b6b96"/>
  <circle cx="54" cy="58" r="3" fill="#374151"/>
  <circle cx="74" cy="58" r="3" fill="#374151"/>
  <path d="M57 69c4 3 10 3 14 0" stroke="#b45309" stroke-width="3" stroke-linecap="round" fill="none"/>
  <path d="M40 93c6-10 16-16 24-16s18 6 24 16" fill="#b6d2f3"/>
  <path d="M42 94c6-7 13-11 22-11 10 0 17 4 22 11" stroke="#8bb7e8" stroke-width="4" stroke-linecap="round"/>
</svg>
